<svg width="224" height="223" viewBox="0 0 224 223" fill="none" xmlns="http://www.w3.org/2000/svg">
<path d="M78.6282 170.391L69.6035 183.005L67.9753 181.84L70.9556 167.39L71.4923 167.774L58.7786 175.26L57.1683 174.108L66.193 161.494L67.8749 162.698L60.6551 172.789L60.0647 172.366L71.8291 165.527L72.9921 166.359L70.317 179.701L69.7086 179.266L76.9284 169.175L78.6282 170.391Z" fill="#F9BBD2"/>
<path d="M62.7184 158.026L46.1764 161.853L44.9971 160.29L53.1519 145.346L54.5696 147.225L52.2099 151.403L52.1186 150.26L57.7764 157.759L56.6619 157.304L61.3271 156.182L62.7184 158.026ZM47.6087 159.587L55.9276 157.5L55.8417 158.226L51.1379 151.992L51.8069 152.038L47.5557 159.517L47.6087 159.587Z" fill="#F9BBD2"/>
<path d="M51.0953 140.938L36.5921 146.435L34.6896 141.415C34.0711 139.783 33.8298 138.299 33.9659 136.961C34.0968 135.609 34.5948 134.44 35.4599 133.454C36.3062 132.459 37.5041 131.667 39.0539 131.08C40.59 130.498 42.0115 130.296 43.3184 130.475C44.6202 130.641 45.7748 131.183 46.7823 132.103C47.7708 133.015 48.5743 134.287 49.1929 135.919L51.0953 140.938ZM48.4947 139.477L47.4499 136.72C46.743 134.855 45.7654 133.642 44.5172 133.079C43.2637 132.504 41.7181 132.564 39.8804 133.261C38.0426 133.957 36.8521 134.934 36.3089 136.19C35.7468 137.439 35.8192 138.995 36.5262 140.861L37.571 143.617L48.4947 139.477Z" fill="#F9BBD2"/>
<path d="M45.3919 122.693L29.9557 124.204L28.9654 114.089L30.7827 113.911L31.5565 121.815L36.4173 121.339L35.6928 113.939L37.532 113.758L38.2565 121.159L43.3362 120.662L42.5624 112.758L44.4016 112.578L45.3919 122.693Z" fill="#F9BBD2"/>
<path d="M47.2904 92.1059L30.8671 91.5026L31.7345 89.2906L45.8543 89.9831L45.5571 90.7409L34.8267 81.4052L35.4612 79.7872L49.5729 80.5002L49.2998 81.1966L38.5292 71.9632L39.3485 69.8741L51.7881 80.6363L51.0733 82.4591L37.6037 81.8562L37.7724 81.4261L47.9972 90.3036L47.2904 92.1059Z" fill="#F9BBD2"/>
<path d="M57.2595 72.3784L44.8642 63.0554L46.2395 61.2269L58.6348 70.5498L57.2595 72.3784Z" fill="#F9BBD2"/>
<path d="M66.5184 62.0042L57.4943 51.8348L53.5286 55.3539L52.2582 53.9222L61.9011 45.3654L63.1714 46.797L59.2057 50.3161L68.2298 60.4856L66.5184 62.0042Z" fill="#F9BBD2"/>
<path d="M76.4587 54.1555L69.6477 40.221L71.7033 39.2163L74.6402 45.2249L82.4673 41.3991L79.5303 35.3905L81.5859 34.3857L88.3969 48.3202L86.3414 49.3249L83.3078 43.1187L75.4808 46.9445L78.5143 53.1507L76.4587 54.1555Z" fill="#F9BBD2"/>
<path d="M105.207 44.7035L104.664 29.203L106.95 29.123L107.425 42.6667L115.032 42.4003L115.1 44.3571L105.207 44.7035Z" fill="#F9BBD2"/>
<path d="M121.949 37.132C122.32 35.5468 122.919 34.2409 123.746 33.2143C124.574 32.1877 125.589 31.4838 126.793 31.1025C128.011 30.7246 129.356 30.7076 130.827 31.0516C132.283 31.3922 133.467 32.0003 134.377 32.8758C135.287 33.7513 135.892 34.8342 136.193 36.1246C136.508 37.4183 136.482 38.8506 136.114 40.4216C135.744 42.0068 135.129 43.3165 134.269 44.3507C133.427 45.3739 132.396 46.0816 131.174 46.4738C129.971 46.8551 128.648 46.8771 127.205 46.5398C125.734 46.1959 124.544 45.5861 123.634 44.7106C122.727 43.8209 122.124 42.7308 121.823 41.4404C121.54 40.1391 121.582 38.703 121.949 37.132ZM124.284 37.678C123.857 39.506 123.923 41.0277 124.482 42.2429C125.041 43.4582 126.099 44.2478 127.656 44.6118C129.17 44.9658 130.459 44.7326 131.525 43.9123C132.594 43.0778 133.343 41.7393 133.774 39.897C134.205 38.0547 134.125 36.5297 133.534 35.322C132.957 34.1177 131.904 33.3369 130.376 32.9796C128.819 32.6156 127.523 32.8471 126.486 33.6741C125.449 34.501 124.715 35.8357 124.284 37.678Z" fill="#F9BBD2"/>
<path d="M144.157 52.8976L145.84 36.0381L147.986 37.2491L146.362 51.9443L145.673 51.555L157.432 42.5795L159.482 43.7364L145.901 53.8815L144.157 52.8976Z" fill="#F9BBD2"/>
<path d="M155.178 60.3222L165.998 49.2091L173.281 56.2992L172.007 57.6076L166.316 52.0675L162.909 55.5669L168.237 60.7541L166.948 62.0782L161.62 56.891L158.06 60.5481L163.75 66.0882L162.461 67.4123L155.178 60.3222Z" fill="#F9BBD2"/>
<path d="M171.666 81.5405L185.674 74.8822L186.656 76.9486L172.648 83.6069L171.666 81.5405Z" fill="#F9BBD2"/>
<path d="M175.748 90.847L190.87 87.3987L191.262 89.1147L181.196 101.18L181.074 100.644L193.257 97.866L193.732 99.9466L178.61 103.395L178.223 101.7L188.294 89.6561L188.406 90.1494L176.223 92.9276L175.748 90.847Z" fill="#F9BBD2"/>
<path d="M176.953 126.146C177.413 124.04 178.285 122.586 179.571 121.786C180.853 121 182.533 120.834 184.611 121.287L193.66 123.261L193.172 125.497L184.166 123.532C182.704 123.213 181.532 123.287 180.65 123.755C179.778 124.241 179.191 125.178 178.887 126.568C178.6 127.887 178.748 128.962 179.332 129.795C179.93 130.631 180.96 131.209 182.422 131.528L191.428 133.493L190.949 135.685L181.9 133.711C179.822 133.257 178.367 132.392 177.535 131.115C176.703 129.837 176.509 128.181 176.953 126.146Z" fill="#F9BBD2"/>
<path d="M173.353 138.435L187.067 145.679L185.999 147.702L179.832 144.445L179.811 144.484L182.649 154.044L181.323 156.553L178.108 145.4L179.051 145.923L167.342 149.815L168.708 147.228L178.664 143.877L178.684 143.838L172.284 140.458L173.353 138.435Z" fill="#F9BBD2"/>
<path d="M164.493 153.296L175.835 163.876L171.363 168.67C170.232 169.882 169.067 170.55 167.868 170.675C166.679 170.809 165.57 170.397 164.54 169.436C163.865 168.806 163.426 168.115 163.223 167.365C163.021 166.614 163.046 165.846 163.299 165.059C163.562 164.282 164.039 163.523 164.73 162.783L164.747 163.28L164.342 163.715C163.931 164.155 163.454 164.441 162.908 164.574C162.353 164.718 161.724 164.672 161.02 164.437L155.804 162.611L157.515 160.777L162.732 162.634C163.322 162.884 163.841 162.897 164.29 162.674C164.729 162.461 165.178 162.108 165.638 161.615L167.694 159.411L162.933 154.969L164.493 153.296ZM168.965 160.597L166.309 163.444C165.559 164.248 165.165 165.014 165.128 165.742C165.081 166.481 165.379 167.15 166.023 167.75C166.677 168.36 167.366 168.612 168.088 168.503C168.801 168.406 169.532 167.955 170.283 167.151L172.939 164.303L168.965 160.597Z" fill="#F9BBD2"/>
<path d="M152.808 165.104L154.9 181.954L153.223 182.964L139.205 173.305L141.221 172.09L145.132 174.87L143.985 174.842L152.03 169.992L151.462 171.053L150.83 166.297L152.808 165.104ZM152.795 180.294L151.581 171.804L152.294 171.964L145.606 175.997L145.721 175.336L152.719 180.34L152.795 180.294Z" fill="#F9BBD2"/>
<path d="M134.293 174.74L139.216 189.447L137.047 190.174L132.123 175.466L134.293 174.74Z" fill="#F9BBD2"/>
<path d="M124.563 177.672L126.165 193.099L124.415 193.281L113.649 181.836L114.196 181.779L115.487 194.208L113.364 194.429L111.762 179.002L113.49 178.822L124.235 190.269L123.731 190.321L122.44 177.892L124.563 177.672Z" fill="#F9BBD2"/>
<path d="M105.466 178.517L102.977 193.826L92.9443 192.195L93.2373 190.392L101.076 191.667L101.86 186.846L94.5206 185.653L94.8172 183.829L102.157 185.022L102.976 179.984L95.1369 178.71L95.4334 176.886L105.466 178.517Z" fill="#F9BBD2"/>
</svg>
