<svg width="100" height="25" viewBox="0 0 100 25" fill="none" xmlns="http://www.w3.org/2000/svg">
<g filter="url(#filter0_d_302_3367)">
<path d="M1 24.7525V0.567139H12.7324C15.4311 0.567139 17.5009 1.12746 18.9417 2.24811C20.4055 3.36875 21.1373 4.88962 21.1373 6.81073C21.1373 8.22869 20.7142 9.44081 19.868 10.4471C19.0447 11.4534 17.9126 12.1395 16.4717 12.5055V11.9565C18.1871 12.2539 19.5021 12.9171 20.4169 13.9462C21.3546 14.9526 21.8234 16.2676 21.8234 17.8914C21.8234 20.0183 21.0458 21.6993 19.4906 22.9343C17.9355 24.1464 15.8086 24.7525 13.1098 24.7525H1ZM7.07207 20.1213H12.2865C13.4758 20.1213 14.3563 19.904 14.928 19.4694C15.5226 19.0349 15.8199 18.3602 15.8199 17.4455C15.8199 16.5077 15.5226 15.8331 14.928 15.4214C14.3563 15.0097 13.4758 14.8039 12.2865 14.8039H7.07207V20.1213ZM7.07207 10.1727H11.5661C12.7782 10.1727 13.6588 9.96684 14.2076 9.55517C14.7794 9.14351 15.0652 8.51456 15.0652 7.66837C15.0652 6.82217 14.7794 6.20466 14.2076 5.81587C13.6588 5.40421 12.7782 5.19838 11.5661 5.19838H7.07207V10.1727ZM25.054 24.7525V0.567139H31.4005V24.7525H25.054ZM35.875 24.7525V0.567139H42.2215V19.5038H52.5817V24.7525H35.875ZM57.4869 24.7525V13.1916L58.7562 16.6907L47.9157 0.567139H55.2227L61.3634 10.2756H60.1284L66.2691 0.567139H73.336L62.5641 16.6907L63.8334 13.1916V24.7525H57.4869ZM75.8087 24.7525V0.567139H82.1552V10.9273H82.2238L91.4863 0.567139H98.8963L87.1638 13.2945V10.7902L99.5484 24.7525H91.898L82.2238 13.8434H82.1552V24.7525H75.8087Z" fill="#F9D59D"/>
</g>
<defs>
<filter id="filter0_d_302_3367" x="-3" y="0.567139" width="106.548" height="32.1853" filterUnits="userSpaceOnUse" color-interpolation-filters="sRGB">
<feFlood flood-opacity="0" result="BackgroundImageFix"/>
<feColorMatrix in="SourceAlpha" type="matrix" values="0 0 0 0 0 0 0 0 0 0 0 0 0 0 0 0 0 0 127 0" result="hardAlpha"/>
<feOffset dy="4"/>
<feGaussianBlur stdDeviation="2"/>
<feComposite in2="hardAlpha" operator="out"/>
<feColorMatrix type="matrix" values="0 0 0 0 0 0 0 0 0 0 0 0 0 0 0 0 0 0 0.25 0"/>
<feBlend mode="normal" in2="BackgroundImageFix" result="effect1_dropShadow_302_3367"/>
<feBlend mode="normal" in="SourceGraphic" in2="effect1_dropShadow_302_3367" result="shape"/>
</filter>
</defs>
</svg>
