<svg width="100" height="25" viewBox="0 0 100 25" fill="none" xmlns="http://www.w3.org/2000/svg">
<g clip-path="url(#clip0_102_5121)">
<mask id="path-1-inside-1_102_5121" fill="white">
<path d="M1.00006 24.7525V0.567127H12.7325C15.4312 0.567127 17.501 1.12745 18.9418 2.2481C20.4056 3.36874 21.1373 4.88961 21.1373 6.81072C21.1373 8.22868 20.7143 9.4408 19.868 10.4471C19.0448 11.4534 17.9127 12.1395 16.4718 12.5054V11.9565C18.1871 12.2539 19.5022 12.9171 20.4169 13.9462C21.3547 14.9526 21.8235 16.2676 21.8235 17.8914C21.8235 20.0183 21.0458 21.6993 19.4907 22.9343C17.9356 24.1464 15.8086 24.7525 13.1099 24.7525H1.00006ZM7.07213 20.1213H12.2865C13.4758 20.1213 14.3563 19.904 14.928 19.4694C15.5227 19.0349 15.82 18.3602 15.82 17.4454C15.82 16.5077 15.5227 15.8331 14.928 15.4214C14.3563 15.0097 13.4758 14.8039 12.2865 14.8039H7.07213V20.1213ZM7.07213 10.1727H11.5661C12.7782 10.1727 13.6588 9.96683 14.2076 9.55516C14.7794 9.14349 15.0653 8.51455 15.0653 7.66836C15.0653 6.82216 14.7794 6.20465 14.2076 5.81586C13.6588 5.4042 12.7782 5.19837 11.5661 5.19837H7.07213V10.1727ZM25.0541 24.7525V0.567127H31.4006V24.7525H25.0541ZM35.8751 24.7525V0.567127H42.2216V19.5038H52.5818V24.7525H35.8751ZM57.4869 24.7525V13.1916L58.7562 16.6907L47.9158 0.567127H55.2228L61.3635 10.2755H60.1284L66.2691 0.567127H73.3361L62.5642 16.6907L63.8335 13.1916V24.7525H57.4869ZM75.8087 24.7525V0.567127H82.1553V10.9273H82.2239L91.4863 0.567127H98.8964L87.1639 13.2945V10.7902L99.5484 24.7525H91.898L82.2239 13.8434H82.1553V24.7525H75.8087Z"/>
</mask>
<path d="M1.00006 24.7525V0.567127H12.7325C15.4312 0.567127 17.501 1.12745 18.9418 2.2481C20.4056 3.36874 21.1373 4.88961 21.1373 6.81072C21.1373 8.22868 20.7143 9.4408 19.868 10.4471C19.0448 11.4534 17.9127 12.1395 16.4718 12.5054V11.9565C18.1871 12.2539 19.5022 12.9171 20.4169 13.9462C21.3547 14.9526 21.8235 16.2676 21.8235 17.8914C21.8235 20.0183 21.0458 21.6993 19.4907 22.9343C17.9356 24.1464 15.8086 24.7525 13.1099 24.7525H1.00006ZM7.07213 20.1213H12.2865C13.4758 20.1213 14.3563 19.904 14.928 19.4694C15.5227 19.0349 15.82 18.3602 15.82 17.4454C15.82 16.5077 15.5227 15.8331 14.928 15.4214C14.3563 15.0097 13.4758 14.8039 12.2865 14.8039H7.07213V20.1213ZM7.07213 10.1727H11.5661C12.7782 10.1727 13.6588 9.96683 14.2076 9.55516C14.7794 9.14349 15.0653 8.51455 15.0653 7.66836C15.0653 6.82216 14.7794 6.20465 14.2076 5.81586C13.6588 5.4042 12.7782 5.19837 11.5661 5.19837H7.07213V10.1727ZM25.0541 24.7525V0.567127H31.4006V24.7525H25.0541ZM35.8751 24.7525V0.567127H42.2216V19.5038H52.5818V24.7525H35.8751ZM57.4869 24.7525V13.1916L58.7562 16.6907L47.9158 0.567127H55.2228L61.3635 10.2755H60.1284L66.2691 0.567127H73.3361L62.5642 16.6907L63.8335 13.1916V24.7525H57.4869ZM75.8087 24.7525V0.567127H82.1553V10.9273H82.2239L91.4863 0.567127H98.8964L87.1639 13.2945V10.7902L99.5484 24.7525H91.898L82.2239 13.8434H82.1553V24.7525H75.8087Z" fill="black" stroke="black" stroke-width="2" mask="url(#path-1-inside-1_102_5121)"/>
</g>
<defs>
<clipPath id="clip0_102_5121">
<rect width="100" height="24.7525" fill="white"/>
</clipPath>
</defs>
</svg>
